Coordinates
version=1
nRows=6
nColumns=40
inDegrees=yes

Units are S.I. units (second, meters, Newtons, ...)
If the header above contains a line with 'inDegrees', this indicates whether rotational values are in degrees (yes) or radians (no).

endheader
time	pelvis_tilt	pelvis_list	pelvis_rotation	pelvis_tx	pelvis_ty	pelvis_tz	hip_flexion_r	hip_adduction_r	hip_rotation_r	knee_angle_r	knee_angle_r_beta	ankle_angle_r	subtalar_angle_r	mtp_angle_r	hip_flexion_l	hip_adduction_l	hip_rotation_l	knee_angle_l	knee_angle_l_beta	ankle_angle_l	subtalar_angle_l	mtp_angle_l	lumbar_extension	lumbar_bending	lumbar_rotation	arm_flex_r	arm_add_r	arm_rot_r	elbow_flex_r	pro_sup_r	wrist_flex_r	wrist_dev_r	arm_flex_l	arm_add_l	arm_rot_l	elbow_flex_l	pro_sup_l	wrist_flex_l	wrist_dev_l
      9.84999999999999964473	     26.52348821439210269091	     -0.00579495172148813617	   -175.75247453686645826565	      0.31669039372078028327	      0.93807326854003580952	     -0.54747974311726044228	     53.94065430743374633948	    -13.75834346972296806655	     -5.33526122927463841705	     34.43755092423893415798	      0.60104864995118567617	      9.32768638734384225586	      0.00000000000000000000	      0.00000000000000000000	     53.81198276947632308520	     -1.93410057846540484050	      0.10759423099476347896	     33.82026308422459948133	      0.59027494471041153101	      6.49698624256161583190	      0.00000000000000000000	      0.00000000000000000000	    -12.87385026185829772771	      4.33880757255348115109	     -6.53310115678133040973	     28.33503298648691881567	    -13.11504301811128669897	     31.86795389964241564940	     19.61469800481967595829	     88.37816672446282950659	      0.00000000000000000000	      0.00000000000000000000	     35.17005523624515461734	    -14.15881698967074875384	     76.26717626272765926387	     17.88452898545384428530	     80.86499239231304159148	      0.00000000000000000000	      0.00000000000000000000
      9.85500000000000042633	     26.57813551828232334628	     -0.07411165432733031466	   -175.44843471691663694401	      0.31509719160555249573	      0.93899519399420949828	     -0.54670805337541683588	     53.72054017805029957344	    -14.05495615006623744137	     -5.49107397392069174202	     34.24537534030066865398	      0.59769455326952025676	      9.36004725767183032303	      0.00000000000000000000	      0.00000000000000000000	     53.52621076284668788503	     -1.56416923986622147247	      0.34533487881896729466	     33.35862787660524020339	      0.58221789039432614299	      6.41318358251754272459	      0.00000000000000000000	      0.00000000000000000000	    -12.13782288621506033621	      4.25425470152870222051	     -6.91866391237588462815	     27.81715263978371055487	    -13.08207391746572589852	     31.85162512218796493357	     19.55379547826723651838	     88.40867598957501627410	      0.00000000000000000000	      0.00000000000000000000	     34.57069751569839155536	    -14.17561746000957967340	     75.96212609439099594510	     17.91428172459019307894	     80.69027932981212813957	      0.00000000000000000000	      0.00000000000000000000
      9.85999999999999943157	     26.76500418910726608601	     -0.46972181427504339224	   -175.54761281840259812270	      0.31348775940449530308	      0.93953510624321590061	     -0.54688423818148523825	     53.85521180873524116350	    -14.22260680984278025107	     -5.05223708831436102429	     34.16047448811421105574	      0.59621275386111749484	      9.38208113679272237562	      0.00000000000000000000	      0.00000000000000000000	     53.31283819654356648243	     -1.34160238982378321460	     -0.02998168485655922436	     32.94959367392586102596	      0.57507889680430113177	      6.38532466176645741029	      0.00000000000000000000	      0.00000000000000000000	    -11.28753560063074345976	      3.66944984312857602760	     -6.91129649431591719377	     27.17228498562832683660	    -13.01324960380939010918	     31.65504289963415018860	     19.54820728802635798615	     88.37890813591880601052	      0.00000000000000000000	      0.00000000000000000000	     34.09835330539308984044	    -14.21792655612284406175	     76.49218112406929037661	     17.89602312386881166617	     80.99261234930818886824	      0.00000000000000000000	      0.00000000000000000000
      9.86500000000000021316	     26.84532884156896770378	     -0.89542866458932202089	   -175.55913525385960838321	      0.31172407609919755567	      0.94031443575896667131	     -0.54679029980423099477	     53.85974612458720400809	    -14.49621970355409139586	     -4.65678379438260314771	     34.09701545097458819100	      0.59510518472288576053	      9.40933736198242520743	      0.00000000000000000000	      0.00000000000000000000	     52.92782979632851692031	     -0.98477024657475287217	     -0.26730475473960324528	     32.42652961305236658518	      0.56594970674320665971	      6.35601388540927825233	      0.00000000000000000000	      0.00000000000000000000	    -10.54648899585765597919	      3.09777064756749576091	     -7.00666981977146541283	     26.60456991044356556131	    -12.98952717887705965438	     31.78694149506288724183	     19.55495975927054175258	     88.38533471322728019004	      0.00000000000000000000	      0.00000000000000000000	     33.52504963339987398285	    -14.35006913899428759862	     76.32529404695934260872	     18.03653805918938246577	     81.09323780181988183813	      0.00000000000000000000	      0.00000000000000000000
      9.86999999999999921840	     26.89220797345948454904	     -0.99563511055868170185	   -175.43572028983044219785	      0.30998606471982087518	      0.94117503491954757067	     -0.54662086924356367845	     53.67052215947175142219	    -14.63800994457217008460	     -4.65396348876482868206	     33.90991669769500305165	      0.59183969545178050087	      9.45662950208208918923	      0.00000000000000000000	      0.00000000000000000000	     52.61236841491726323738	     -0.76707520981905108481	     -0.17089053088154940174	     31.98177055435526838778	      0.55818719679087158703	      6.31416207745277624497	      0.00000000000000000000	      0.00000000000000000000	     -9.82693678676235293779	      2.88982155586966493743	     -7.16409922989343961319	     26.08132324366006926653	    -12.98235060689818709534	     31.91339519357245890774	     19.50996054656874889588	     88.38912342840542635258	      0.00000000000000000000	      0.00000000000000000000	     33.01333996611775489782	    -14.39218482778797891797	     76.42023638476256053309	     18.07349901980132500512	     81.11225355300108219581	      0.00000000000000000000	      0.00000000000000000000
      9.87500000000000000000	     26.94379190151083847127	     -1.25133738343226386114	   -175.43183111228668735748	      0.30824601328792861077	      0.94206199497293552358	     -0.54663689619159450128	     53.56078520106517260047	    -14.79730131399815284965	     -4.45927634313867837790	     33.74821655505933648556	      0.58901749556184357370	      9.47131075996233562364	      0.00000000000000000000	      0.00000000000000000000	     52.21374874212194328038	     -0.52079824123510709555	     -0.24268780906085907212	     31.42954787024008211915	      0.54854909274886098913	      6.29231637975790381034	      0.00000000000000000000	      0.00000000000000000000	     -9.12149873844439973425	      2.49581432911500566973	     -7.19962633207847346739	     25.52260321585753999329	    -13.04726230871555436863	     32.22289203658451128831	     19.59074002624289079222	     88.39912145343893712379	      0.00000000000000000000	      0.00000000000000000000	     32.48281939460407841125	    -14.45392554108786242750	     76.34000641475560655635	     18.13658567358581663598	     80.96501386054454485475	      0.00000000000000000000	      0.00000000000000000000
